<?xml version="1.0" encoding="utf-8"?>
<!-- Generator: Adobe Illustrator 16.0.3, SVG Export Plug-In . SVG Version: 6.00 Build 0)  -->
<!DOCTYPE svg PUBLIC "-//W3C//DTD SVG 1.1//EN" "http://www.w3.org/Graphics/SVG/1.1/DTD/svg11.dtd">
<svg version="1.1" id="Layer_1" xmlns="http://www.w3.org/2000/svg" xmlns:xlink="http://www.w3.org/1999/xlink" x="0px" y="0px"
	 width="784.826px" height="255.118px" viewBox="0 0 784.826 255.118" enable-background="new 0 0 784.826 255.118"
	 xml:space="preserve">
<g>
	<path fill="#00A94C" d="M406.307,69.74c-19.171,0-34.711,15.628-34.711,34.904c0,19.273,15.54,34.902,34.711,34.902
		c6.326,0,12.255-1.709,17.362-4.681v4.683h17.353v-34.904C441.022,85.366,425.481,69.74,406.307,69.74z M423.662,104.643v0.173
		c-0.092,9.558-7.825,17.278-17.354,17.278c-9.586,0-17.357-7.813-17.357-17.451c0-9.637,7.771-17.454,17.357-17.454
		c9.587,0,17.356,7.817,17.356,17.454H423.662z"/>
	<path fill="#00A94C" d="M156.514,120.775c-1.756,0.842-3.719,1.323-5.797,1.323c-7.454,0-13.498-6.078-13.498-13.574h0.001
		l0.003-21.33l13.138-0.003c0-0.003,2.176-7.692,2.176-17.449l-15.313,0.003V49.327c-9.707,0-17.359,2.579-17.359,2.579
		s0.004,10.487,0.002,17.834h-0.002v38.747c0,0.013,0,0.025,0,0.037c0,17.131,13.814,31.022,30.854,31.022
		c5.833,0,11.283-1.633,15.937-4.463C162.318,131.138,158.836,126.264,156.514,120.775z"/>
	<path fill="#00A94C" d="M379.058,74.202c-4.651-2.829-10.104-4.462-15.938-4.462c-17.037,0-30.852,13.892-30.852,31.021
		c0,0.013,0.001,0.025,0.001,0.037v38.748h17.354l0.002-38.785h-0.002c0-7.495,6.044-13.572,13.496-13.572
		c2.08,0,4.043,0.48,5.801,1.323C371.242,83.021,374.725,78.148,379.058,74.202z"/>
	<ellipse fill="#00A94C" cx="37.061" cy="57.398" rx="9.489" ry="9.542"/>
	<path fill="#00A94C" d="M83.141,69.742c-17.039,0-30.855,13.889-30.855,31.021c0,0.011,0.001,0.024,0.001,0.036v38.749h17.355
		v-38.785l0,0c0-7.496,6.044-13.574,13.498-13.574c7.457,0,13.499,6.078,13.499,13.574v38.785h17.356v-38.785
		C113.997,83.631,100.183,69.742,83.141,69.742z"/>
	<path fill="#00A94C" d="M28.383,139.547H45.74V69.743c-9.708,0-17.356,2.579-17.356,2.579V139.547z"/>
	<path fill="#00A94C" d="M232.879,139.546h17.357V49.327c-9.497,0.003-17.033,2.47-17.341,2.574L232.879,139.546z"/>
	<path fill="#00A94C" d="M291.962,69.74c-6.323,0-12.247,1.709-17.352,4.681l-0.004-25.094c-9.511,0.003-17.058,2.478-17.343,2.574
		c0,0-0.014,52.702-0.014,52.743c0,19.273,15.544,34.902,34.713,34.902c19.175,0,34.714-15.629,34.714-34.902
		C326.676,85.368,311.137,69.74,291.962,69.74z M291.962,122.094c-9.584,0-17.356-7.814-17.356-17.451h0.004v-0.13
		c0.07-9.58,7.81-17.322,17.352-17.322c9.589,0,17.359,7.814,17.359,17.453C309.321,114.28,301.551,122.094,291.962,122.094z"/>
	<path fill="#00A94C" d="M227.608,112.909c-8.952-3.575-16.78-3.833-16.78-3.833c-2.173,8.404-10.281,14.059-19.062,12.895
		c-1.972-0.26-3.822-0.849-5.506-1.696l39.257-30.291c-4.839-10.466-14.732-18.298-26.955-19.916
		c-19.002-2.515-36.431,10.935-38.933,30.04c-2.502,19.105,10.875,36.632,29.874,39.146c17.557,2.325,33.772-9.538,38.108-26.344
		L227.608,112.909z M176.818,102.384c1.252-9.563,9.976-16.292,19.482-15.034c1.972,0.261,3.822,0.851,5.506,1.698l-24.782,19.121
		C176.646,106.314,176.559,104.368,176.818,102.384z"/>
	<path fill="#00A94C" d="M480.116,97.103l-11.418-0.011c-2.72,0-4.925-2.216-4.925-4.953c0-2.733,2.205-4.95,4.925-4.95h24.935
		c0.102-0.312,2.557-7.829,2.56-17.376c0,0-27.006-0.002-28.669-0.002c-11.656,0-21.105,9.501-21.105,21.223
		c0,11.721,9.449,21.232,21.105,21.232h11.418c2.72,0,4.926,2.217,4.926,4.952c0,2.735-2.206,4.951-4.926,4.951h-28.283
		c-0.104,0.311-2.558,7.829-2.56,17.377c0,0,31.599,0.002,32.018,0.002c11.656,0,21.107-9.5,21.107-21.223
		C501.223,106.604,491.772,97.103,480.116,97.103z"/>
</g>
<text transform="matrix(0.9945 0 0 1 159.3296 189.0669)" fill="#39B54A" font-family="'Arial-BoldMT'" font-size="41.3426">Calculadora de Armazenamento</text>
</svg>
