<?xml version="1.0" encoding="utf-8"?>
<!-- Generator: Adobe Illustrator 16.0.3, SVG Export Plug-In . SVG Version: 6.00 Build 0)  -->
<!DOCTYPE svg PUBLIC "-//W3C//DTD SVG 1.1//EN" "http://www.w3.org/Graphics/SVG/1.1/DTD/svg11.dtd">
<svg version="1.1" id="Layer_1" xmlns="http://www.w3.org/2000/svg" xmlns:xlink="http://www.w3.org/1999/xlink" x="0px" y="0px"
	 width="784.826px" height="255.118px" viewBox="0 0 784.826 255.118" enable-background="new 0 0 784.826 255.118"
	 xml:space="preserve">
<g>
	<path fill="#00A94C" d="M603.894,45.612c-28.583,0-51.733,23.168-51.733,51.736c0,28.564,23.15,51.719,51.733,51.719
		c9.421,0,18.26-2.521,25.861-6.935v6.938h25.866V97.347C655.622,68.778,632.452,45.612,603.894,45.612z M629.746,97.347v0.254
		c-0.135,14.158-11.663,25.598-25.852,25.598c-14.292,0-25.884-11.575-25.884-25.853c0-14.29,11.592-25.871,25.884-25.871
		c14.282,0,25.854,11.581,25.854,25.871H629.746z"/>
	<path fill="#00A94C" d="M231.65,121.245c-2.624,1.259-5.548,1.974-8.642,1.974c-11.11,0-20.118-9.02-20.118-20.124h0.001
		l0.005-31.612l19.577-0.004c0-0.004,3.246-11.403,3.246-25.864l-22.823,0.004V15.361c-14.463,0-25.868,3.825-25.868,3.825
		s0.006,15.545,0.003,26.426h-0.003v57.433c0,0.017,0,0.034,0,0.049c0,25.391,20.59,45.973,45.98,45.973
		c8.689,0,16.814-2.421,23.748-6.608C240.298,136.613,235.105,129.382,231.65,121.245z"/>
	<path fill="#00A94C" d="M563.288,52.233c-6.945-4.199-15.058-6.621-23.761-6.621c-25.376,0-45.974,20.597-45.974,45.972
		c0,0.032,0.002,0.047,0.002,0.063v57.42h25.853l0.002-57.483h-0.002c0-11.102,9.005-20.108,20.119-20.108
		c3.107,0,6.032,0.713,8.65,1.96C551.637,65.297,556.818,58.081,563.288,52.233z"/>
	<path fill="#00A94C" d="M53.636,13.182c-7.808,0-14.137,6.337-14.137,14.143c0,7.809,6.329,14.139,14.137,14.139
		c7.813,0,14.144-6.33,14.144-14.139C67.78,19.519,61.449,13.182,53.636,13.182z"/>
	<path fill="#00A94C" d="M122.306,45.615c-25.393,0-45.978,20.594-45.978,45.972c0,0.028,0.002,0.045,0.002,0.061v57.422h25.862
		V91.587l0,0c0-11.104,9.007-20.111,20.113-20.111c11.115,0,20.12,9.006,20.12,20.111v57.483h25.859V91.587
		C168.285,66.209,147.702,45.615,122.306,45.615z"/>
	<path fill="#00A94C" d="M40.709,149.07h25.863V45.616c-14.466,0-25.863,3.83-25.863,3.83V149.07z"/>
	<path fill="#00A94C" d="M345.449,149.068h25.854V15.363c-14.146,0.004-25.371,3.661-25.834,3.818L345.449,149.068z"/>
	<path fill="#00A94C" d="M433.491,45.612c-9.43,0-18.248,2.535-25.848,6.937l-0.006-37.186c-14.179,0.004-25.432,3.678-25.85,3.818
		c0,0-0.033,78.1-0.033,78.167c0,28.564,23.156,51.719,51.736,51.719c28.56,0,51.737-23.155,51.737-51.719
		C485.228,68.781,462.05,45.612,433.491,45.612z M433.491,123.2c-14.29,0-25.854-11.578-25.854-25.853h0.006v-0.199
		c0.092-14.201,11.614-25.67,25.848-25.67c14.296,0,25.857,11.577,25.857,25.869C459.348,111.622,447.787,123.2,433.491,123.2z"/>
	<path fill="#00A94C" d="M337.589,109.6c-13.344-5.303-25.007-5.684-25.007-5.684c-3.231,12.449-15.318,20.83-28.398,19.107
		c-2.938-0.382-5.697-1.252-8.212-2.519l58.501-44.887c-7.21-15.513-21.949-27.118-40.166-29.52
		c-28.317-3.718-54.29,16.215-58.015,44.519c-3.732,28.314,16.201,54.293,44.515,58.012c26.16,3.441,50.327-14.132,56.787-39.026
		L337.589,109.6z M261.902,93.992c1.868-14.164,14.869-24.138,29.029-22.277c2.94,0.384,5.696,1.256,8.211,2.521l-36.933,28.336
		C261.644,99.818,261.513,96.93,261.902,93.992z"/>
	<path fill="#00A94C" d="M713.874,86.171l-17.017-0.015c-4.055,0-7.334-3.284-7.334-7.349c0-4.046,3.279-7.332,7.334-7.332h37.164
		c0.151-0.465,3.809-11.599,3.813-25.755c0,0-40.249-0.003-42.722-0.003c-17.377,0-31.451,14.083-31.451,31.457
		c0,17.373,14.074,31.469,31.451,31.469h17.018c4.053,0,7.334,3.285,7.334,7.333c0,4.048-3.281,7.332-7.334,7.332h-42.15
		c-0.154,0.464-3.811,11.611-3.813,25.756c0,0,47.085,0.002,47.707,0.002c17.372,0,31.453-14.082,31.453-31.442
		C745.327,100.255,731.246,86.171,713.874,86.171z"/>
</g>
<text transform="matrix(1 0 0 1 9.5098 224.6323)" fill="#00A14B" font-family="'MuseoSansForDell'" font-size="56">Calculadora  Armazenamento</text>
</svg>
