<?xml version="1.0" encoding="utf-8"?>
<!-- Generator: Adobe Illustrator 16.0.3, SVG Export Plug-In . SVG Version: 6.00 Build 0)  -->
<!DOCTYPE svg PUBLIC "-//W3C//DTD SVG 1.1//EN" "http://www.w3.org/Graphics/SVG/1.1/DTD/svg11.dtd">
<svg version="1.1" id="Layer_1" xmlns="http://www.w3.org/2000/svg" xmlns:xlink="http://www.w3.org/1999/xlink" x="0px" y="0px"
	 width="700px" height="500px" viewBox="0 0 480 320" enable-background="new 0 0 480 320" xml:space="preserve">
<path fill="#FFFFFF" d="M421.424,124.829c-1.277-3.107-3.223-5.996-5.801-8.53c-5.176-5.147-11.477-7.768-18.662-7.768
	c-7.268,0-13.547,2.628-18.693,7.768c-5.133,5.11-7.717,11.404-7.717,18.671c0,7.245,2.584,13.539,7.717,18.672
	c5.146,5.154,11.426,7.76,18.693,7.76c7.186,0,13.486-2.605,18.662-7.725c5.154-5.081,7.768-11.383,7.768-18.729
	C423.363,131.333,422.701,127.921,421.424,124.829 M407.929,139.536c-0.633,1.451-1.445,2.707-2.549,3.804
	c-1.082,1.075-2.346,1.938-3.805,2.599c-2.896,1.264-6.416,1.234-9.262,0c-1.445-0.66-2.736-1.523-3.783-2.584
	c-1.059-1.061-1.924-2.338-2.547-3.789c-0.633-1.452-0.893-2.94-0.893-4.596c0-1.647,0.26-3.143,0.893-4.609
	c0.652-1.445,1.48-2.723,2.547-3.789c1.061-1.061,2.33-1.932,3.783-2.556c1.459-0.632,2.977-0.944,4.652-0.944
	c1.662,0,3.166,0.313,4.617,0.944c1.459,0.624,2.723,1.517,3.805,2.556c1.059,1.117,1.93,2.41,2.547,3.832
	c0.639,1.445,0.93,2.919,0.93,4.566C408.857,136.581,408.539,138.128,407.929,139.536"/>
<path fill="#FFFFFF" d="M358.209,116.299c-5.197-5.147-11.484-7.768-18.707-7.753c-4.291,0-8.297,0.914-11.869,2.766V95.587
	c0-2.031-0.756-3.832-2.178-5.183c-2.773-2.707-7.564-2.656-10.271,0.022c-1.373,1.371-2.092,3.157-2.092,5.16v39.383
	c0,7.245,2.605,13.539,7.738,18.672c5.133,5.154,11.428,7.76,18.664,7.76c7.223,0,13.51-2.605,18.707-7.725
	c5.141-5.081,7.754-11.383,7.754-18.707c0-3.622-0.676-7.049-1.961-10.178C362.717,121.679,360.763,118.804,358.209,116.299
	 M350.5,139.536c-0.617,1.451-1.467,2.707-2.57,3.804c-1.066,1.075-2.338,1.938-3.805,2.599c-2.881,1.264-6.416,1.234-9.232,0
	c-1.453-0.66-2.73-1.523-3.797-2.584c-1.061-1.061-1.916-2.338-2.527-3.789c-0.631-1.452-0.928-2.94-0.928-4.596
	c0-1.647,0.297-3.143,0.928-4.609c0.617-1.445,1.459-2.708,2.527-3.789c1.066-1.061,2.352-1.932,3.797-2.556
	c1.438-0.632,2.947-0.944,4.617-0.944c1.684,0,3.193,0.313,4.623,0.944c1.467,0.624,2.736,1.517,3.805,2.556
	c1.096,1.117,1.953,2.41,2.57,3.832c0.602,1.445,0.936,2.919,0.936,4.566C351.435,136.581,351.095,138.128,350.5,139.536"/>
<path fill="#FFFFFF" d="M294.195,110.658c-1.379,1.386-2.127,3.18-2.127,5.176v38.272c0,1.988,0.748,3.789,2.127,5.168
	c1.387,1.4,3.18,2.127,5.125,2.127c1.967,0,3.732-0.727,5.119-2.127c1.363-1.379,2.119-3.143,2.184-5.168v-38.338
	c-0.064-1.96-0.805-3.717-2.184-5.133C301.658,107.886,297.011,107.856,294.195,110.658"/>
<path fill="#FFFFFF" d="M294.195,90.448c-1.379,1.422-2.127,3.187-2.127,5.161c0,1.952,0.748,3.768,2.127,5.147
	c1.387,1.379,3.18,2.141,5.141,2.141c1.967,0,3.768-0.762,5.168-2.141c1.371-1.38,2.119-3.173,2.119-5.147s-0.748-3.739-2.119-5.161
	C301.695,87.697,297.011,87.697,294.195,90.448"/>
<path fill="#FFFFFF" d="M283.844,121.786c-1.096-2.613-2.672-4.914-4.639-6.867c-1.939-1.952-4.254-3.514-6.838-4.652
	c-2.65-1.141-5.482-1.721-8.422-1.721c-5.451,0-10.25,1.814-14.293,5.43c-1.635-1.48-3.428-2.664-5.322-3.521
	c-1.879-0.856-3.913-1.409-5.959-1.685v-0.036c-1.023-0.124-2.055-0.188-3.129-0.21c-2.954,0-5.771,0.595-8.414,1.742
	c-2.613,1.139-4.914,2.7-6.831,4.652c-1.975,1.953-3.527,4.254-4.66,6.839c-1.154,2.657-1.757,5.459-1.757,8.406v23.942
	c0,1.988,0.763,3.789,2.142,5.168c1.387,1.395,3.158,2.127,5.118,2.127c1.996,0,3.774-0.732,5.168-2.148
	c1.38-1.401,2.084-3.158,2.084-5.146v-23.942c0-0.958,0.182-1.821,0.53-2.7c0.384-0.9,0.878-1.604,1.561-2.279
	c0.624-0.668,1.387-1.169,2.279-1.554c1.452-0.661,3.245-0.763,4.82-0.247c0.203,0.065,0.428,0.139,0.639,0.247
	c0.9,0.385,1.662,0.899,2.294,1.554c0.661,0.668,1.155,1.379,1.54,2.258c0.406,0.863,0.566,1.756,0.566,2.722v23.942
	c0,1.988,0.725,3.789,2.119,5.168c2.773,2.759,7.492,2.795,10.301,0c1.387-1.379,2.119-3.18,2.119-5.168v-23.942
	c0-0.979,0.197-1.872,0.537-2.744c0.379-0.871,0.857-1.567,1.533-2.229c0.668-0.661,1.422-1.176,2.344-1.561
	c1.67-0.763,3.783-0.726,5.453,0c0.893,0.385,1.633,0.899,2.301,1.554c0.646,0.675,1.154,1.379,1.523,2.279
	c0.371,0.879,0.531,1.742,0.531,2.7v23.942c0,1.988,0.74,3.745,2.098,5.146c1.379,1.416,3.15,2.148,5.146,2.148
	c1.982,0,3.754-0.732,5.125-2.127c1.402-1.379,2.119-3.18,2.119-5.168v-23.942C285.57,127.217,285.006,124.422,283.844,121.786"/>
<path fill="#FFFFFF" d="M256.867,222.823l-0.289,0.008c-0.641,0.094-1.191,0.457-1.619,1.045c-1.859,2.345-4.182,4.174-6.918,5.423
	c-2.738,1.241-5.678,1.873-8.727,1.873c-4,0-7.637-0.929-10.809-2.767c-3.173-1.828-5.663-4.406-7.397-7.637
	c-1.75-3.237-2.636-6.954-2.636-11.027c0-4.508,0.93-8.479,2.773-11.781c1.837-3.296,4.334-5.844,7.44-7.594
	c3.114-1.734,6.556-2.62,10.236-2.62c5.966,0,11.056,2.374,15.107,7.02c0.385,0.683,1.031,1.038,1.873,1.038l0.398-0.008
	c0.633-0.094,1.133-0.369,1.518-0.842c0.363-0.442,0.529-0.986,0.529-1.604v-0.196c0-0.479-0.174-0.966-0.551-1.431
	c-2.578-2.969-5.365-5.168-8.297-6.525c-2.926-1.365-6.193-2.055-9.707-2.055c-5.271,0-9.945,1.125-13.88,3.34
	c-3.949,2.229-7.027,5.386-9.154,9.408c-2.112,4-3.187,8.631-3.187,13.771c0,4.878,1.096,9.364,3.237,13.328
	c2.156,3.978,5.212,7.151,9.089,9.438c3.884,2.286,8.363,3.448,13.313,3.448c3.768,0,7.418-0.762,10.86-2.287
	c3.455-1.524,6.367-3.775,8.654-6.649c0.406-0.399,0.594-1.009,0.594-1.895l-0.035-0.167
	C258.74,223.085,257.543,222.823,256.867,222.823"/>
<path fill="#FFFFFF" d="M309.361,184.116c-1.496,0-2.346,0.893-2.346,2.446v6.505c-1.496-2.693-3.506-4.893-5.988-6.556
	c-3.34-2.235-7.398-3.368-12.029-3.368c-4.428,0-8.668,1.023-12.604,3.034c-3.949,2.025-7.15,5.067-9.531,9.046
	c-2.389,3.978-3.594,8.732-3.594,14.141c0,5.401,1.17,10.178,3.479,14.17c2.314,4.016,5.443,7.107,9.291,9.198
	c3.848,2.083,8.072,3.151,12.566,3.151c4.639,0,8.74-1.068,12.203-3.166c2.6-1.575,4.682-3.73,6.207-6.417v6.155
	c0,1.562,0.85,2.447,2.346,2.447c0.719,0,1.307-0.225,1.756-0.689c0.465-0.457,0.697-1.053,0.697-1.758v-45.887
	c0-0.711-0.225-1.307-0.697-1.764C310.668,184.341,310.064,184.116,309.361,184.116 M307.015,205.48v8.442
	c0,3.652-0.9,6.811-2.686,9.351c-1.793,2.569-4.174,4.522-7.094,5.822c-2.924,1.321-6.104,1.975-9.414,1.975
	c-3.66,0-7.027-0.937-10.004-2.795c-2.99-1.88-5.395-4.493-7.129-7.797c-1.742-3.303-2.627-7.049-2.627-11.114
	c0-3.949,0.826-7.594,2.496-10.838c1.633-3.217,4.08-5.83,7.252-7.717c3.172-1.91,6.998-2.875,11.377-2.875
	c3.172,0,6.17,0.704,8.906,2.063c2.715,1.363,4.893,3.389,6.504,6.039C306.195,198.7,307.015,201.88,307.015,205.48"/>
<path fill="#FFFFFF" d="M409.316,192.958c-2.172-3.187-5.023-5.662-8.531-7.324c-3.477-1.656-7.186-2.498-11.02-2.498
	c-4.906,0-9.596,1.438-13.924,4.291c-3.717,2.439-6.496,6.148-8.246,11.034c-1.168-4.595-3.506-8.218-6.961-10.767
	c-4.088-3.02-8.887-4.551-14.252-4.551c-2.787,0-5.697,0.559-8.674,1.648c-2.992,1.088-5.771,2.889-8.27,5.35
	c-1.625,1.604-2.953,3.535-3.992,5.742v-9.423c0-0.632-0.232-1.198-0.689-1.663c-0.465-0.457-1.061-0.689-1.764-0.689
	c-0.639,0-1.197,0.232-1.656,0.689c-0.463,0.458-0.695,1.031-0.695,1.663v45.995c0,0.727,0.254,1.322,0.762,1.787
	c0.965,0.893,2.445,0.885,3.346-0.022c0.457-0.464,0.689-1.06,0.689-1.765v-22.511c0-4.312,1.061-8.188,3.15-11.514
	c2.092-3.347,4.793-5.945,8.037-7.753c3.244-1.814,6.555-2.729,9.852-2.729c3.287,0,6.309,0.733,8.965,2.192
	c2.65,1.451,4.777,3.578,6.322,6.322c1.547,2.76,2.33,6.092,2.33,9.889v26.104c0,0.712,0.24,1.307,0.697,1.765
	s1.053,0.683,1.758,0.683c0.703,0,1.299-0.225,1.756-0.683c0.457-0.464,0.689-1.06,0.689-1.765v-22.511
	c0-4.378,1.061-8.305,3.158-11.659c2.092-3.367,4.785-5.981,8.021-7.76c3.252-1.779,6.592-2.679,9.945-2.679
	c3.18,0,6.148,0.733,8.842,2.155c2.693,1.416,4.857,3.441,6.439,6.004c1.576,2.563,2.359,5.452,2.359,8.609v27.848
	c0,1.554,0.857,2.446,2.352,2.446c0.719,0,1.301-0.226,1.758-0.683c0.465-0.465,0.689-1.06,0.689-1.764v-28.137
	C412.59,199.993,411.494,196.167,409.316,192.958"/>
<path fill="#FFFFFF" d="M112.434,164.443c-13.647,0-24.755-11.106-24.755-24.755c0-13.654,11.107-24.754,24.755-24.754
	s24.755,11.1,24.755,24.754C137.196,153.337,126.081,164.443,112.434,164.443 M112.434,120.132c-10.787,0-19.557,8.77-19.557,19.557
	s8.77,19.557,19.557,19.557c10.78,0,19.557-8.77,19.557-19.557S123.214,120.132,112.434,120.132"/>
<path fill="#FFFFFF" d="M140.999,246.729H83.861c-5.531,0-10.032-4.501-10.032-10.032c0-5.539,4.501-10.04,10.032-10.04h19.267
	v-34.519h5.198v39.724H83.861c-2.664,0-4.835,2.171-4.835,4.835s2.171,4.834,4.835,4.834h57.139c2.665,0,4.835-2.17,4.835-4.834
	s-2.17-4.835-4.835-4.835h-24.464v-39.724h5.198v34.519h19.266c5.532,0,10.033,4.501,10.033,10.04
	C151.032,242.228,146.538,246.729,140.999,246.729"/>
<path fill="#FFFFFF" d="M182.676,90.411c-4.225-13.705-16.072-24.122-30.192-26.532c-2.127-0.363-4.319-0.553-6.519-0.553v-5.197
	c2.49,0,4.98,0.211,7.397,0.625c16.028,2.744,29.487,14.568,34.279,30.133L182.676,90.411z"/>
<path fill="#FFFFFF" d="M168.709,93.432c-2.57-8.334-9.771-14.672-18.353-16.131c-1.307-0.225-2.642-0.341-3.971-0.341v-5.19
	c1.619,0,3.245,0.131,4.842,0.406c10.498,1.793,19.311,9.539,22.446,19.724L168.709,93.432z"/>
<path fill="#FFFFFF" d="M112.434,194.903c-30.78,0-55.825-25.045-55.825-55.824c0-30.787,25.045-55.833,55.825-55.833
	c30.787,0,55.832,25.046,55.832,55.833C168.266,169.852,143.221,194.903,112.434,194.903 M112.434,88.444
	c-27.92,0-50.627,22.715-50.627,50.635c0,27.912,22.707,50.627,50.627,50.627s50.635-22.715,50.635-50.627
	C163.069,111.151,140.354,88.444,112.434,88.444"/>
</svg>
