<?xml version="1.0" encoding="utf-8"?>
<!-- Generator: Adobe Illustrator 16.0.3, SVG Export Plug-In . SVG Version: 6.00 Build 0)  -->
<!DOCTYPE svg PUBLIC "-//W3C//DTD SVG 1.1//EN" "http://www.w3.org/Graphics/SVG/1.1/DTD/svg11.dtd">
<svg version="1.1" id="Layer_1" xmlns="http://www.w3.org/2000/svg" xmlns:xlink="http://www.w3.org/1999/xlink" x="0px" y="0px"
	 width="134.667px" height="136.333px" viewBox="0 0 134.667 136.333" enable-background="new 0 0 134.667 136.333"
	 xml:space="preserve">
<g>
	<path fill="#28BDBE" d="M132.833,123.834c0,5.5-4.5,10-10,10h-111c-5.5,0-10-4.5-10-10v-111c0-5.5,4.5-10,10-10h111
		c5.5,0,10,4.5,10,10V123.834z"/>
	<path fill="none" stroke="#FFFFFF" stroke-width="4" stroke-miterlimit="10" d="M132.833,123.834c0,5.5-4.5,10-10,10h-111
		c-5.5,0-10-4.5-10-10v-111c0-5.5,4.5-10,10-10h111c5.5,0,10,4.5,10,10V123.834z"/>
</g>
<text transform="matrix(1 0 0 1 32.4736 112.9009)" fill="#FFFFFF" font-family="'Tahoma'" font-size="13">Detecção de </text>
<text transform="matrix(1 0 0 1 44.4048 128.5005)" fill="#FFFFFF" font-family="'Tahoma'" font-size="13">humanos</text>
<circle fill="none" stroke="#FFFFFF" stroke-width="2" stroke-miterlimit="10" cx="67.333" cy="54.186" r="42.5"/>
<path fill="#FFFFFF" d="M67.347,42.428c2.363,0,4.289-1.922,4.289-4.287c0-2.365-1.926-4.287-4.289-4.287
	c-2.364,0-4.287,1.922-4.287,4.287C63.06,40.506,64.983,42.428,67.347,42.428 M67.347,35.042c1.709,0,3.102,1.39,3.102,3.099
	s-1.392,3.099-3.102,3.099c-1.709,0-3.099-1.39-3.099-3.099S65.638,35.042,67.347,35.042"/>
<path fill="#FFFFFF" d="M74.275,49.64c-0.359,0-0.633-0.856-0.633-0.499l-0.016,10.024c0,0.232-0.188,0.417-0.42,0.417h-1.582
	v-11.45c0-0.357-0.291-0.647-0.648-0.647c-0.359,0-0.65,0.29-0.65,0.647v27.49c0,0.231-0.188,0.42-0.42,0.42h-1.505
	c-0.231,0-0.42-0.188-0.42-0.42V65.303c0-0.357-0.292-0.647-0.648-0.647c-0.357,0-0.647,0.292-0.647,0.647v10.319
	c0,0.231-0.189,0.42-0.419,0.42h-1.51c-0.229,0-0.417-0.188-0.417-0.42v-27.49c0-0.357-0.29-0.647-0.651-0.647
	c-0.357,0-0.647,0.29-0.647,0.647v11.451h-1.583c-0.229,0-0.419-0.186-0.419-0.417V48.132c0-2.132,1.735-3.863,3.866-3.863h4.857
	c2.13,0,3.863,1.731,3.863,3.863c0,0.357,0.146,9.091,0.502,9.091c0.357,0,0.959-6.286,0.793-9.091
	c-0.166-2.841-2.314-5.161-5.159-5.161h-4.857c-2.848,0-5.164,2.314-5.164,5.161v11.033c0.002,0.947,0.771,1.715,1.717,1.715h1.583
	v14.742c0,0.945,0.769,1.717,1.715,1.717h1.51c0.401,0,0.772-0.141,1.066-0.375c0.293,0.234,0.666,0.375,1.068,0.375h1.505
	c0.948,0,1.72-0.771,1.72-1.717V60.88h1.582c0.945,0,1.715-0.771,1.715-1.715v-8.876C74.921,49.931,74.632,49.64,74.275,49.64"/>
<rect x="44.013" y="33.074" fill="#FFFFFF" width="11.235" height="1.563"/>
<rect x="44.013" y="33.058" fill="#FFFFFF" width="1.563" height="11.235"/>
<rect x="89.076" y="33.058" fill="#FFFFFF" width="1.563" height="11.235"/>
<rect x="79.421" y="33.058" fill="#FFFFFF" width="11.234" height="1.565"/>
<rect x="79.421" y="75.76" fill="#FFFFFF" width="11.234" height="1.564"/>
<rect x="279.274" y="-78.83" fill="#12A44A" width="0.767" height="5.495"/>
<rect x="44.027" y="66.104" fill="#FFFFFF" width="1.565" height="11.234"/>
<rect x="44.013" y="75.775" fill="#FFFFFF" width="11.235" height="1.563"/>
<rect x="89.514" y="66.059" fill="#FFFFFF" width="1.565" height="11.234"/>
</svg>
