<?xml version="1.0" encoding="utf-8"?>
<!-- Generator: Adobe Illustrator 16.0.3, SVG Export Plug-In . SVG Version: 6.00 Build 0)  -->
<!DOCTYPE svg PUBLIC "-//W3C//DTD SVG 1.1//EN" "http://www.w3.org/Graphics/SVG/1.1/DTD/svg11.dtd">
<svg version="1.1" id="Layer_1" xmlns="http://www.w3.org/2000/svg" xmlns:xlink="http://www.w3.org/1999/xlink" x="0px" y="0px"
	 width="134.667px" height="132.168px" viewBox="0 0 134.667 132.168" enable-background="new 0 0 134.667 132.168"
	 xml:space="preserve">
<g>
	<g>
		<path fill="#28BDBE" d="M132.833,122.168c0,5.5-4.5,10-10,10h-111c-5.5,0-10-4.5-10-10v-111c0-5.5,4.5-10,10-10h111
			c5.5,0,10,4.5,10,10V122.168z"/>
		<path fill="none" stroke="#FFFFFF" stroke-miterlimit="10" d="M132.833,122.168c0,5.5-4.5,10-10,10h-111c-5.5,0-10-4.5-10-10v-111
			c0-5.5,4.5-10,10-10h111c5.5,0,10,4.5,10,10V122.168z"/>
	</g>
	<text transform="matrix(1 0 0 1 31.6494 80.8979)" fill="#FFFFFF" font-family="'Tahoma-Bold'" font-size="40.655">iM3</text>
</g>
</svg>
