<?xml version="1.0" encoding="utf-8"?>
<!-- Generator: Adobe Illustrator 16.0.3, SVG Export Plug-In . SVG Version: 6.00 Build 0)  -->
<!DOCTYPE svg PUBLIC "-//W3C//DTD SVG 1.1//EN" "http://www.w3.org/Graphics/SVG/1.1/DTD/svg11.dtd">
<svg version="1.1" id="Layer_1" xmlns="http://www.w3.org/2000/svg" xmlns:xlink="http://www.w3.org/1999/xlink" x="0px" y="0px"
	 width="134.667px" height="136.333px" viewBox="0 0 134.667 136.333" enable-background="new 0 0 134.667 136.333"
	 xml:space="preserve">
<g>
	<path fill="#28BDBE" d="M132.833,123.834c0,5.5-4.5,10-10,10h-111c-5.5,0-10-4.5-10-10v-111c0-5.5,4.5-10,10-10h111
		c5.5,0,10,4.5,10,10V123.834z"/>
	<path fill="none" stroke="#FFFFFF" stroke-width="4" stroke-miterlimit="10" d="M132.833,123.834c0,5.5-4.5,10-10,10h-111
		c-5.5,0-10-4.5-10-10v-111c0-5.5,4.5-10,10-10h111c5.5,0,10,4.5,10,10V123.834z"/>
</g>
<text transform="matrix(1 0 0 1 32.4736 112.9009)" fill="#FFFFFF" font-family="'Tahoma'" font-size="13">Detecção de </text>
<text transform="matrix(1 0 0 1 37.4697 128.5005)" fill="#FFFFFF" font-family="'Tahoma'" font-size="13">movimento</text>
<rect x="263.878" y="84.692" fill="#29BDBD" width="51.459" height="47.148"/>
<circle fill="none" stroke="#FFFFFF" stroke-width="2" stroke-miterlimit="10" cx="68.333" cy="54.918" r="42.5"/>
<path fill="#FFFFFF" d="M92.414,43.524l-0.072-0.072c-0.938-0.938-2.598-0.938-3.536,0l-3.757,3.83
	c-0.215,0.214-0.502,0.214-0.721,0l-5.271-4.912c-0.505-0.431-1.154-0.723-1.877-0.723h-7.866c-0.218,0-0.363,0.074-0.434,0.146
	l-6.645,6.352c-0.938,1.014-1.009,2.6-0.143,3.538c0.431,0.507,1.082,0.794,1.803,0.794c0.723,0,1.372-0.288,1.805-0.794
	l4.692-4.979h1.661L61.082,58.973h-6.786c-1.66,0-2.958,1.229-3.032,2.744c-0.072,0.795,0.217,1.589,0.795,2.167
	c0.577,0.505,1.299,0.865,2.094,0.865h10.105c0.218,0,0.363-0.072,0.505-0.216l5.197-5.559l4.332,4.549l-1.299,8.374
	c-0.359,1.443,0.36,2.814,1.588,3.393c0.434,0.217,0.793,0.291,1.227,0.291s0.867-0.074,1.3-0.291
	c0.724-0.36,1.298-1.082,1.515-1.949l2.238-12.058c0-0.215-0.072-0.503-0.215-0.646l-5.994-5.992l4.766-4.764l3.32,3.32
	c0.938,0.938,2.527,0.938,3.467,0l6.207-6.209C93.351,46.051,93.351,44.466,92.414,43.524 M91.402,45.979l-6.209,6.209
	c-0.431,0.359-1.082,0.359-1.443,0l-3.826-3.827c-0.287-0.29-0.721-0.29-1.01,0l-5.773,5.776c-0.146,0.144-0.219,0.288-0.219,0.505
	c0,0.217,0.072,0.361,0.291,0.577l6.207,6.209l-2.166,11.622c-0.145,0.361-0.433,0.722-0.793,0.939c-0.36,0.141-0.795,0.217-1.228,0
	c-0.649-0.289-0.938-1.013-0.794-1.808l1.371-8.805c0-0.218-0.072-0.436-0.217-0.579l-5.125-5.341
	c-0.143-0.146-0.287-0.218-0.506-0.218c-0.215,0-0.432,0.072-0.504,0.218l-5.484,5.848h-9.818c-0.434,0-0.795-0.146-1.084-0.435
	c-0.217-0.288-0.359-0.651-0.359-1.083c0-0.794,0.722-1.37,1.586-1.37h7.076c0.217,0,0.36-0.076,0.505-0.076l12.269-13.71
	c0.216-0.217,0.216-0.505,0.144-0.794c-0.071-0.29-0.36-0.435-0.648-0.435h-3.609c-0.146,0-0.361,0.074-0.506,0.217l-4.908,5.199
	c-0.146,0.218-0.433,0.359-0.725,0.359c-0.288,0-0.577-0.142-0.792-0.359c-0.362-0.434-0.362-1.084,0.072-1.518l6.425-6.135h7.652
	c0.289,0,0.649,0.144,0.865,0.359l5.271,4.912c0.792,0.723,2.021,0.647,2.741-0.074l3.754-3.826c0.359-0.362,1.084-0.362,1.445,0
	l0.071,0.072C91.764,44.97,91.764,45.618,91.402,45.979"/>
<path fill="#FFFFFF" d="M83.472,43.815c2.382,0,4.333-1.949,4.333-4.333c0-2.384-1.951-4.331-4.333-4.331
	c-2.383,0-4.333,1.947-4.333,4.331C79.14,41.866,81.089,43.815,83.472,43.815 M83.472,36.595c1.589,0,2.887,1.3,2.887,2.888
	c0,1.589-1.298,2.887-2.887,2.887c-1.59,0-2.887-1.298-2.887-2.887C80.585,37.896,81.882,36.595,83.472,36.595"/>
<path fill="#FFFFFF" stroke="#FFFFFF" stroke-miterlimit="10" d="M60.431,44.642h-8.178c-0.565,0-1.022-0.687-1.022-1.022
	c0-0.339,0.457-1.022,1.022-1.022h8.178c0.564,0,1.022,0.683,1.022,1.022C61.453,43.955,60.996,44.642,60.431,44.642"/>
<path fill="#FFFFFF" stroke="#FFFFFF" stroke-miterlimit="10" d="M54.297,50.775H46.12c-0.565,0-1.022-0.842-1.022-1.022
	c0-0.179,0.458-1.022,1.022-1.022h8.178c0.564,0,1.022,0.843,1.022,1.022C55.32,49.933,54.862,50.775,54.297,50.775"/>
<line fill="none" stroke="#FFFFFF" stroke-linecap="round" stroke-linejoin="round" stroke-miterlimit="10" x1="50.208" y1="55.887" x2="42.03" y2="55.887"/>
</svg>
