<?xml version="1.0" encoding="utf-8"?>
<!-- Generator: Adobe Illustrator 16.0.3, SVG Export Plug-In . SVG Version: 6.00 Build 0)  -->
<!DOCTYPE svg PUBLIC "-//W3C//DTD SVG 1.1//EN" "http://www.w3.org/Graphics/SVG/1.1/DTD/svg11.dtd">
<svg version="1.1" id="Layer_1" xmlns="http://www.w3.org/2000/svg" xmlns:xlink="http://www.w3.org/1999/xlink" x="0px" y="0px"
	 width="134.667px" height="136.333px" viewBox="0 0 134.667 136.333" enable-background="new 0 0 134.667 136.333"
	 xml:space="preserve">
<g>
	<path fill="#28BDBE" d="M132.833,123.834c0,5.5-4.5,10-10,10h-111c-5.5,0-10-4.5-10-10v-111c0-5.5,4.5-10,10-10h111
		c5.5,0,10,4.5,10,10V123.834z"/>
	<path fill="none" stroke="#FFFFFF" stroke-width="4" stroke-miterlimit="10" d="M132.833,123.834c0,5.5-4.5,10-10,10h-111
		c-5.5,0-10-4.5-10-10v-111c0-5.5,4.5-10,10-10h111c5.5,0,10,4.5,10,10V123.834z"/>
</g>
<text transform="matrix(1 0 0 1 43.832 117.9009)" fill="#FFFFFF" font-family="'Tahoma'" font-size="13">Regular</text>
<rect x="279.274" y="-78.83" fill="#12A44A" width="0.767" height="5.495"/>
<text transform="matrix(1 0 0 1 18.5361 82.6675)" fill="#FFFFFF" font-family="'Tahoma-Bold'" font-size="51">24h</text>
</svg>
