<?xml version="1.0" encoding="utf-8"?>
<!-- Generator: Adobe Illustrator 16.0.3, SVG Export Plug-In . SVG Version: 6.00 Build 0)  -->
<!DOCTYPE svg PUBLIC "-//W3C//DTD SVG 1.1//EN" "http://www.w3.org/Graphics/SVG/1.1/DTD/svg11.dtd">
<svg version="1.1" id="Layer_1" xmlns="http://www.w3.org/2000/svg" xmlns:xlink="http://www.w3.org/1999/xlink" x="0px" y="0px"
	 width="134.667px" height="136.333px" viewBox="0 0 134.667 136.333" enable-background="new 0 0 134.667 136.333"
	 xml:space="preserve">
<g>
	<path fill="#28BDBE" d="M132.833,123.834c0,5.5-4.5,10-10,10h-111c-5.5,0-10-4.5-10-10v-111c0-5.5,4.5-10,10-10h111
		c5.5,0,10,4.5,10,10V123.834z"/>
	<path fill="none" stroke="#FFFFFF" stroke-width="4" stroke-miterlimit="10" d="M132.833,123.834c0,5.5-4.5,10-10,10h-111
		c-5.5,0-10-4.5-10-10v-111c0-5.5,4.5-10,10-10h111c5.5,0,10,4.5,10,10V123.834z"/>
</g>
<text transform="matrix(1 0 0 1 15.6489 118.9009)" fill="#FFFFFF" font-family="'Tahoma'" font-size="13">Detecção de ruído</text>
<g>
	<path fill="#FFFFFF" d="M103.169,55.546c0,19.836-16.082,35.913-35.915,35.913c-19.834,0-35.915-16.077-35.915-35.913
		c0-19.835,16.081-35.914,35.915-35.914C87.087,19.632,103.169,35.711,103.169,55.546"/>
	<rect x="13.333" y="4.443" fill="#29BDBD" width="110" height="100.783"/>
	<circle fill="none" stroke="#FFFFFF" stroke-width="2" stroke-miterlimit="10" cx="67.463" cy="54.863" r="44.434"/>
	
		<polyline fill="none" stroke="#FFFFFF" stroke-width="2" stroke-linecap="round" stroke-linejoin="round" stroke-miterlimit="10" points="
		43.146,58.01 51.082,58.01 53.974,50.694 56.753,58.54 59.729,47.927 62.319,66.799 67.021,29.368 71.052,79.006 76.23,44.633 
		78.916,63.423 81.797,50.274 84.866,60.37 87.455,58.01 94.45,58.01 	"/>
</g>
</svg>
